<svg xmlns="http://www.w3.org/2000/svg" width="85" height="30" viewBox="0 0 85 30">
    <g fill="#EA5504" fill-rule="nonzero">
        <path d="M10.285 5.678H.07v3.55H3.36v16.127h3.632V9.23h3.292zM21.892 9.229V5.678H13.41v19.677h8.483v-3.55h-4.851v-4.543h4.328V13.77h-4.328V9.23zM29.642 21.804V5.678H26.01v19.677h7.985l1.126-3.55zM81.445 25.355h3.486l-6.239-19.68h-2.97l-6.24 19.68h3.486l1.081-3.55h6.313l1.083 3.55zm-6.434-6.7l2.196-7.207 2.196 7.206H75.01zM62.076 12.03a1.657 1.657 0 0 1-.466-1.159c0-.907.716-1.642 1.6-1.642h3.173l1.126-3.551H63.21c-2.796 0-5.063 2.323-5.063 5.192 0 1.417.553 2.7 1.447 3.637l3.997 4.242c.252.322.405.73.405 1.177 0 .952-.698 1.877-1.593 1.877h-4.855l1.13 3.551h3.488c2.92 0 5.288-2.43 5.288-5.427a5.486 5.486 0 0 0-1.378-3.654l-4.001-4.243zM47.842.067h-3.019l-7.23 22.796h3.82c1-1.699 2.844-2.871 4.92-2.871 2.075 0 3.91 1.172 4.91 2.871h3.828L47.841.067zm-1.51 16.313c-1.061 0-2.08.185-3.03.524l3.03-9.554 3.03 9.554a8.996 8.996 0 0 0-3.03-.524zM39.17 29.936l1.612-4.58h-3.978l-1.443 4.58zM57.304 29.936l-1.443-4.58h-3.978l1.612 4.58z"/>
    </g>
</svg>
